<?xml version="1.0" encoding="utf-8"?>
<!-- Generator: Adobe Illustrator 17.1.0, SVG Export Plug-In . SVG Version: 6.00 Build 0)  -->
<!DOCTYPE svg PUBLIC "-//W3C//DTD SVG 1.1 Tiny//EN" "http://www.w3.org/Graphics/SVG/1.1/DTD/svg11-tiny.dtd">
<svg version="1.1" baseProfile="tiny" id="Layer_1" xmlns="http://www.w3.org/2000/svg" xmlns:xlink="http://www.w3.org/1999/xlink"
	 x="0px" y="0px" viewBox="0 0 131 63" xml:space="preserve">
<g>
	<path fill="#FFFFFF" d="M1.365,36.203c0.987,0.903,2.331,1.533,3.674,1.533c1.323,0,2.604-0.756,2.604-2.226
		c0-3.275-6.761-2.456-6.761-7.244c0-2.981,2.289-4.388,5.501-4.388c1.239,0,3.17,0.588,4.073,1.26l-1.449,1.806
		c-0.756-0.672-1.911-1.05-2.897-1.05c-1.092,0-2.163,0.567-2.163,1.764c0,3.149,6.761,2.352,6.761,7.328
		c0,3.086-2.541,4.766-5.396,4.766c-1.743,0-3.422-0.314-4.934-1.218L1.365,36.203z"/>
	<path fill="#FFFFFF" d="M11.445,26.209v-2.079h11.59v2.079h-4.325V39.5h-3.002V26.209H11.445z"/>
	<path fill="#FFFFFF" d="M31.162,23.9c4.787,0,7.391,3.338,7.391,7.937c0,4.514-2.771,7.894-7.412,7.894
		c-4.703,0-7.265-3.464-7.265-7.936C23.876,27.301,26.459,23.9,31.162,23.9z M31.225,37.736c3.233,0,4.22-3.065,4.22-5.816
		s-0.966-6.026-4.262-6.026c-3.254,0-4.22,3.107-4.22,5.816C26.963,34.461,27.929,37.736,31.225,37.736z"/>
	<path fill="#FFFFFF" d="M45.547,24.131c2.792,0,5.186,1.008,5.186,4.199c0,1.785-1.575,3.485-3.275,3.885l4.703,7.285h-3.275
		l-4.262-6.845h-1.155V39.5h-2.876V25.412c0-0.063-0.252-1.155-0.315-1.281H45.547z M43.468,30.598h1.344
		c1.617,0,2.876-0.504,2.876-2.289c0-1.407-1.134-2.079-2.415-2.079h-1.806V30.598z"/>
	<path fill="#FFFFFF" d="M52.982,24.131h9.659v2.079h-6.467v4.346h4.956v2.079h-4.956v4.787h6.467V39.5h-9.344V25.412L52.982,24.131
		z"/>
	<path fill="#FFFFFF" d="M73.329,24.131v2.079h-5.795v4.346h4.472v2.079h-4.472V39.5h-2.919V25.412c0-0.063-0.293-1.155-0.293-1.281
		H73.329z"/>
	<path fill="#FFFFFF" d="M79.881,24.131c2.793,0,5.187,1.008,5.187,4.199c0,1.785-1.575,3.485-3.275,3.885l4.703,7.285H83.22
		l-4.263-6.845h-1.154V39.5h-2.877V25.412c0-0.063-0.252-1.155-0.314-1.281H79.881z M77.803,30.598h1.344
		c1.617,0,2.877-0.504,2.877-2.289c0-1.407-1.135-2.079-2.415-2.079h-1.806V30.598z"/>
	<path fill="#FFFFFF" d="M94.225,23.9c4.787,0,7.391,3.338,7.391,7.937c0,4.514-2.771,7.894-7.412,7.894
		c-4.703,0-7.265-3.464-7.265-7.936C86.938,27.301,89.521,23.9,94.225,23.9z M94.287,37.736c3.233,0,4.221-3.065,4.221-5.816
		s-0.967-6.026-4.263-6.026c-3.255,0-4.22,3.107-4.22,5.816C90.025,34.461,90.99,37.736,94.287,37.736z"/>
	<path fill="#FFFFFF" d="M106.803,24.152l6.047,9.196c0.315,0.483,0.588,0.903,0.861,1.387c-0.062-0.525-0.126-1.092-0.126-1.617
		v-8.965h2.331v15.454h-2.268l-6.908-10.541c-0.314-0.483-0.609-0.924-0.882-1.407c0.063,0.483,0.126,0.924,0.126,1.407V39.5h-2.33
		V25.433c0-0.063-0.295-1.155-0.295-1.281H106.803z"/>
	<path fill="#FFFFFF" d="M117.451,26.209v-2.079h11.59v2.079h-4.325V39.5h-3.003V26.209H117.451z"/>
</g>
</svg>
